<?xml version="1.0" encoding="UTF-8"?>
<svg xmlns="http://www.w3.org/2000/svg"
     xmlns:xlink="http://www.w3.org/1999/xlink"
     xmlns:gadfly="http://www.gadflyjl.org/ns"
     version="1.2"
     width="152.4mm" height="101.6mm" viewBox="0 0 152.4 101.6"
     stroke="none"
     fill="#000000"
     stroke-width="0.3"
     font-size="3.88"
>
<g class="plotroot xscalable yscalable" id="img-48759ac4-1">
  <g font-size="3.88" font-family="'PT Sans','Helvetica Neue','Helvetica',sans-serif" fill="#564A55" stroke="#000000" stroke-opacity="0.000" id="img-48759ac4-2">
    <text x="82.11" y="89.99" text-anchor="middle" dy="0.6em">x</text>
  </g>
  <g class="guide xlabels" font-size="2.82" font-family="'PT Sans Caption','Helvetica Neue','Helvetica',sans-serif" fill="#6C606B" id="img-48759ac4-3">
    <text x="18.83" y="83.32" text-anchor="middle" dy="0.6em">0</text>
    <text x="50.47" y="83.32" text-anchor="middle" dy="0.6em">5</text>
    <text x="82.11" y="83.32" text-anchor="middle" dy="0.6em">10</text>
    <text x="113.76" y="83.32" text-anchor="middle" dy="0.6em">15</text>
    <text x="145.4" y="83.32" text-anchor="middle" dy="0.6em">20</text>
  </g>
<g clip-path="url(#img-48759ac4-4)">
  <g id="img-48759ac4-5">
    <g pointer-events="visible" opacity="1" fill="#000000" fill-opacity="0.000" stroke="#000000" stroke-opacity="0.000" class="guide background" id="img-48759ac4-6">
      <rect x="16.83" y="5" width="130.57" height="77.32"/>
    </g>
    <g class="guide ygridlines xfixed" stroke-dasharray="0.5,0.5" stroke-width="0.2" stroke="#D0D0E0" id="img-48759ac4-7">
      <path fill="none" d="M16.83,80.32 L 147.4 80.32"/>
      <path fill="none" d="M16.83,65.65 L 147.4 65.65"/>
      <path fill="none" d="M16.83,50.99 L 147.4 50.99"/>
      <path fill="none" d="M16.83,36.33 L 147.4 36.33"/>
      <path fill="none" d="M16.83,21.66 L 147.4 21.66"/>
      <path fill="none" d="M16.83,7 L 147.4 7"/>
    </g>
    <g class="guide xgridlines yfixed" stroke-dasharray="0.5,0.5" stroke-width="0.2" stroke="#D0D0E0" id="img-48759ac4-8">
      <path fill="none" d="M18.83,5 L 18.83 82.32"/>
      <path fill="none" d="M50.47,5 L 50.47 82.32"/>
      <path fill="none" d="M82.11,5 L 82.11 82.32"/>
      <path fill="none" d="M113.76,5 L 113.76 82.32"/>
      <path fill="none" d="M145.4,5 L 145.4 82.32"/>
    </g>
    <g class="plotpanel" id="img-48759ac4-9">
      <g stroke-width="0.3" fill="#000000" fill-opacity="0.000" class="geometry" stroke-dasharray="none" stroke="#FF0000" id="img-48759ac4-10">
        <path fill="none" d="M18.83,80.32 L 19.46 78.2 20.09 76.4 20.72 74.7 21.36 73.07 21.99 71.48 22.62 69.94 23.26 68.43 23.89 66.95 24.52 65.51 25.15 64.08 25.79 62.69 26.42 61.32 27.05 59.97 27.69 58.65 28.32 57.35 28.95 56.07 29.58 54.82 30.22 53.59 30.85 52.38 31.48 51.19 32.12 50.03 32.75 48.9 33.38 47.78 34.01 46.69 34.65 45.63 35.28 44.58 35.91 43.56 36.55 42.57 37.18 41.6 37.81 40.65 38.44 39.73 39.08 38.84 39.71 37.97 40.34 37.12 40.98 36.3 41.61 35.5 42.24 34.73 42.87 33.98 43.51 33.26 44.14 32.56 44.77 31.89 45.41 31.25 46.04 30.63 46.67 30.03 47.31 29.46 47.94 28.92 48.57 28.4 49.2 27.91 49.84 27.44 50.47 26.99 51.1 26.57 51.74 26.18 52.37 25.81 53 25.46 53.63 25.14 54.27 24.84 54.9 24.57 55.53 24.32 56.17 24.09 56.8 23.89 57.43 23.71 58.06 23.55 58.7 23.41 59.33 23.3 59.96 23.21 60.6 23.13 61.23 23.09 61.86 23.06 62.49 23.05 63.13 23.06 63.76 23.09 64.39 23.15 65.03 23.22 65.66 23.31 66.29 23.42 66.92 23.54 67.56 23.69 68.19 23.85 68.82 24.03 69.46 24.23 70.09 24.44 70.72 24.67 71.35 24.91 71.99 25.17 72.62 25.44 73.25 25.73 73.89 26.03 74.52 26.35 75.15 26.68 75.78 27.02 76.42 27.37 77.05 27.74 77.68 28.11 78.32 28.5 78.95 28.9 79.58 29.31 80.21 29.73 80.85 30.15 81.48 30.59 82.11 31.04 82.75 31.49 83.38 31.95 84.01 32.42 84.64 32.9 85.28 33.38 85.91 33.87 86.54 34.36 87.18 34.86 87.81 35.37 88.44 35.88 89.07 36.39 89.71 36.91 90.34 37.43 90.97 37.96 91.61 38.49 92.24 39.02 92.87 39.55 93.5 40.09 94.14 40.63 94.77 41.17 95.4 41.71 96.04 42.25 96.67 42.79 97.3 43.33 97.93 43.87 98.57 44.42 99.2 44.96 99.83 45.5 100.47 46.04 101.1 46.57 101.73 47.11 102.36 47.65 103 48.18 103.63 48.71 104.26 49.24 104.9 49.76 105.53 50.29 106.16 50.81 106.79 51.32 107.43 51.84 108.06 52.35 108.69 52.85 109.33 53.36 109.96 53.86 110.59 54.35 111.22 54.84 111.86 55.33 112.49 55.81 113.12 56.28 113.76 56.76 114.39 57.22 115.02 57.69 115.66 58.14 116.29 58.6 116.92 59.04 117.55 59.49 118.19 59.92 118.82 60.35 119.45 60.78 120.09 61.2 120.72 61.61 121.35 62.02 121.98 62.43 122.62 62.83 123.25 63.22 123.88 63.6 124.52 63.98 125.15 64.36 125.78 64.73 126.41 65.09 127.05 65.45 127.68 65.8 128.31 66.15 128.95 66.49 129.58 66.82 130.21 67.15 130.84 67.48 131.48 67.79 132.11 68.11 132.74 68.41 133.38 68.71 134.01 69.01 134.64 69.3 135.27 69.58 135.91 69.86 136.54 70.13 137.17 70.4 137.81 70.66 138.44 70.92 139.07 71.17 139.7 71.42 140.34 71.66 140.97 71.9 141.6 72.13 142.24 72.36 142.87 72.58 143.5 72.79 144.13 73 144.77 73.21 145.4 73.41"/>
      </g>
      <g class="geometry" id="img-48759ac4-11">
        <g class="color_RGBA{Float32}(0.0f0,0.74736935f0,1.0f0,1.0f0)" stroke="#FFFFFF" stroke-width="0.3" fill="#00BFFF" id="img-48759ac4-12">
          <use xlink:href="#img-48759ac4-13" x="115.02" y="58.91"/>
          <use xlink:href="#img-48759ac4-13" x="144.77" y="74.74"/>
          <use xlink:href="#img-48759ac4-13" x="32.75" y="35.15"/>
          <use xlink:href="#img-48759ac4-13" x="93.5" y="19.32"/>
          <use xlink:href="#img-48759ac4-13" x="95.4" y="55.68"/>
          <use xlink:href="#img-48759ac4-13" x="133.38" y="68"/>
          <use xlink:href="#img-48759ac4-13" x="93.5" y="28.41"/>
          <use xlink:href="#img-48759ac4-13" x="103.63" y="55.09"/>
          <use xlink:href="#img-48759ac4-13" x="91.61" y="23.13"/>
          <use xlink:href="#img-48759ac4-13" x="21.99" y="72.4"/>
          <use xlink:href="#img-48759ac4-13" x="132.74" y="68.88"/>
          <use xlink:href="#img-48759ac4-13" x="83.38" y="39.55"/>
          <use xlink:href="#img-48759ac4-13" x="85.91" y="43.66"/>
          <use xlink:href="#img-48759ac4-13" x="106.16" y="58.03"/>
          <use xlink:href="#img-48759ac4-13" x="47.94" y="21.96"/>
          <use xlink:href="#img-48759ac4-13" x="42.87" y="35.45"/>
          <use xlink:href="#img-48759ac4-13" x="114.39" y="55.09"/>
          <use xlink:href="#img-48759ac4-13" x="114.39" y="65.07"/>
          <use xlink:href="#img-48759ac4-13" x="92.87" y="35.15"/>
          <use xlink:href="#img-48759ac4-13" x="45.41" y="49.52"/>
        </g>
      </g>
    </g>
  </g>
</g>
  <g class="guide ylabels" font-size="2.82" font-family="'PT Sans Caption','Helvetica Neue','Helvetica',sans-serif" fill="#6C606B" id="img-48759ac4-14">
    <text x="15.83" y="80.32" text-anchor="end" dy="0.35em">0.0</text>
    <text x="15.83" y="65.65" text-anchor="end" dy="0.35em">0.5</text>
    <text x="15.83" y="50.99" text-anchor="end" dy="0.35em">1.0</text>
    <text x="15.83" y="36.33" text-anchor="end" dy="0.35em">1.5</text>
    <text x="15.83" y="21.66" text-anchor="end" dy="0.35em">2.0</text>
    <text x="15.83" y="7" text-anchor="end" dy="0.35em">2.5</text>
  </g>
  <g font-size="3.88" font-family="'PT Sans','Helvetica Neue','Helvetica',sans-serif" fill="#564A55" stroke="#000000" stroke-opacity="0.000" id="img-48759ac4-15">
    <text x="8.81" y="43.66" text-anchor="end" dy="0.35em">y</text>
  </g>
</g>
<defs>
  <clipPath id="img-48759ac4-4">
  <path d="M16.83,5 L 147.4 5 147.4 82.32 16.83 82.32" />
</clipPath>
  <g id="img-48759ac4-13">
    <circle cx="0" cy="0" r="0.9"/>
  </g>
</defs>
</svg>
